# xmcd
# Track frame offsets:
# 150
# 11568
# 23272
# 37923
# 51142
# 64200
# 77466
# 90256
# 102716
# 115819
#
# Disc length: 1716 seconds
# Revision: 2
# Processed by: cddbd v1.5.2PL0 Copyright (c) Steve Scherf et al.
# Submitted via: VisiTrax 2.11.3.279 - For more info visit www.synapsa.com
#
DISCID=6906b20a
DTITLE=Slim Dusty - Rarities
DYEAR=1979
DGENRE=Australian Country
TTITLE0=Song For The Aussies
TTITLE1=My Final Song
TTITLE2=Your Best Pal Is Mother
TTITLE3=My Sweetest Lullaby
TTITLE4=Born To Be A Yodeller
TTITLE5=Heading For That Brumby Trail
TTITLE6=The Soldier's Wife
TTITLE7=Baby Of My Dreams
TTITLE8=Lover's Lament
TTITLE9=Happy Drover
EXTD=1979 EMI usic Australia 1996 EMI usic Australia
EXTT0=
EXTT1=
EXTT2=
EXTT3=
EXTT4=
EXTT5=
EXTT6=
EXTT7=
EXTT8=
EXTT9=
PLAYORDER=
